<mxfile host="app.diagrams.net" modified="2022-01-11T15:40:15.069Z" agent="5.0 (Macintosh; Intel Mac OS X 10_15_7) AppleWebKit/537.36 (KHTML, like Gecko) Chrome/96.0.4664.110 Safari/537.36" etag="cercrz8AaQnOZa4ljvsS" version="16.0.3" type="github">
  <diagram id="v8z6BmKmcej6W1Maoec1" name="Page-1">
    <mxGraphModel dx="1186" dy="654" grid="1" gridSize="10" guides="1" tooltips="1" connect="1" arrows="1" fold="1" page="1" pageScale="1" pageWidth="827" pageHeight="1169" math="0" shadow="0">
      <root>
        <mxCell id="0" />
        <mxCell id="1" parent="0" />
        <mxCell id="1Cn_6Ca8cMXQefkyAjcg-22" style="edgeStyle=orthogonalEdgeStyle;rounded=0;orthogonalLoop=1;jettySize=auto;html=1;entryX=0;entryY=0.5;entryDx=0;entryDy=0;curved=1;" edge="1" parent="1" source="1Cn_6Ca8cMXQefkyAjcg-5" target="1Cn_6Ca8cMXQefkyAjcg-20">
          <mxGeometry relative="1" as="geometry" />
        </mxCell>
        <mxCell id="1Cn_6Ca8cMXQefkyAjcg-5" value="Socket 0" style="sketch=0;outlineConnect=0;fontColor=#232F3E;gradientColor=none;strokeColor=#232F3E;fillColor=#ffffff;dashed=0;verticalLabelPosition=bottom;verticalAlign=top;align=center;html=1;fontSize=12;fontStyle=0;aspect=fixed;shape=mxgraph.aws4.resourceIcon;resIcon=mxgraph.aws4.user;" vertex="1" parent="1">
          <mxGeometry x="130" y="110" width="60" height="60" as="geometry" />
        </mxCell>
        <mxCell id="1Cn_6Ca8cMXQefkyAjcg-23" style="edgeStyle=orthogonalEdgeStyle;rounded=0;orthogonalLoop=1;jettySize=auto;html=1;entryX=0;entryY=0.5;entryDx=0;entryDy=0;curved=1;" edge="1" parent="1" source="1Cn_6Ca8cMXQefkyAjcg-6" target="1Cn_6Ca8cMXQefkyAjcg-20">
          <mxGeometry relative="1" as="geometry" />
        </mxCell>
        <mxCell id="1Cn_6Ca8cMXQefkyAjcg-6" value="Socket 1" style="sketch=0;outlineConnect=0;fontColor=#232F3E;gradientColor=none;strokeColor=#232F3E;fillColor=#ffffff;dashed=0;verticalLabelPosition=bottom;verticalAlign=top;align=center;html=1;fontSize=12;fontStyle=0;aspect=fixed;shape=mxgraph.aws4.resourceIcon;resIcon=mxgraph.aws4.user;" vertex="1" parent="1">
          <mxGeometry x="130" y="200" width="60" height="60" as="geometry" />
        </mxCell>
        <mxCell id="1Cn_6Ca8cMXQefkyAjcg-24" style="edgeStyle=orthogonalEdgeStyle;rounded=0;orthogonalLoop=1;jettySize=auto;html=1;entryX=0;entryY=0.5;entryDx=0;entryDy=0;curved=1;" edge="1" parent="1" source="1Cn_6Ca8cMXQefkyAjcg-7" target="1Cn_6Ca8cMXQefkyAjcg-20">
          <mxGeometry relative="1" as="geometry">
            <mxPoint x="210" y="270" as="targetPoint" />
          </mxGeometry>
        </mxCell>
        <mxCell id="1Cn_6Ca8cMXQefkyAjcg-7" value="Socket 2" style="sketch=0;outlineConnect=0;fontColor=#232F3E;gradientColor=none;strokeColor=#232F3E;fillColor=#ffffff;dashed=0;verticalLabelPosition=bottom;verticalAlign=top;align=center;html=1;fontSize=12;fontStyle=0;aspect=fixed;shape=mxgraph.aws4.resourceIcon;resIcon=mxgraph.aws4.user;" vertex="1" parent="1">
          <mxGeometry x="130" y="290" width="60" height="60" as="geometry" />
        </mxCell>
        <mxCell id="1Cn_6Ca8cMXQefkyAjcg-25" style="edgeStyle=orthogonalEdgeStyle;rounded=0;orthogonalLoop=1;jettySize=auto;html=1;entryX=0;entryY=0.5;entryDx=0;entryDy=0;curved=1;" edge="1" parent="1" source="1Cn_6Ca8cMXQefkyAjcg-8" target="1Cn_6Ca8cMXQefkyAjcg-20">
          <mxGeometry relative="1" as="geometry" />
        </mxCell>
        <mxCell id="1Cn_6Ca8cMXQefkyAjcg-8" value="Socket 3" style="sketch=0;outlineConnect=0;fontColor=#232F3E;gradientColor=none;strokeColor=#232F3E;fillColor=#ffffff;dashed=0;verticalLabelPosition=bottom;verticalAlign=top;align=center;html=1;fontSize=12;fontStyle=0;aspect=fixed;shape=mxgraph.aws4.resourceIcon;resIcon=mxgraph.aws4.user;" vertex="1" parent="1">
          <mxGeometry x="130" y="380" width="60" height="60" as="geometry" />
        </mxCell>
        <mxCell id="1Cn_6Ca8cMXQefkyAjcg-21" value="" style="group" vertex="1" connectable="0" parent="1">
          <mxGeometry x="270" y="200" width="413" height="160" as="geometry" />
        </mxCell>
        <mxCell id="1Cn_6Ca8cMXQefkyAjcg-20" value="" style="rounded=0;whiteSpace=wrap;html=1;" vertex="1" parent="1Cn_6Ca8cMXQefkyAjcg-21">
          <mxGeometry width="413" height="160" as="geometry" />
        </mxCell>
        <mxCell id="1Cn_6Ca8cMXQefkyAjcg-11" value="IO 多路复用" style="swimlane;childLayout=stackLayout;horizontal=1;fillColor=none;horizontalStack=1;resizeParent=1;resizeParentMax=0;resizeLast=0;collapsible=0;strokeColor=none;stackBorder=10;stackSpacing=-12;resizable=1;align=center;points=[];fontColor=#000000;" vertex="1" parent="1Cn_6Ca8cMXQefkyAjcg-21">
          <mxGeometry x="13" y="30" width="384" height="100" as="geometry" />
        </mxCell>
        <mxCell id="1Cn_6Ca8cMXQefkyAjcg-12" value="S3" style="shape=step;perimeter=stepPerimeter;fixedSize=1;points=[];fillColor=#fff2cc;strokeColor=#d6b656;" vertex="1" parent="1Cn_6Ca8cMXQefkyAjcg-11">
          <mxGeometry x="10" y="33" width="100" height="57" as="geometry" />
        </mxCell>
        <mxCell id="1Cn_6Ca8cMXQefkyAjcg-13" value="S2" style="shape=step;perimeter=stepPerimeter;fixedSize=1;points=[];fillColor=#d5e8d4;strokeColor=#82b366;" vertex="1" parent="1Cn_6Ca8cMXQefkyAjcg-11">
          <mxGeometry x="98" y="33" width="100" height="57" as="geometry" />
        </mxCell>
        <mxCell id="1Cn_6Ca8cMXQefkyAjcg-14" value="S1" style="shape=step;perimeter=stepPerimeter;fixedSize=1;points=[];fillColor=#dae8fc;strokeColor=#6c8ebf;" vertex="1" parent="1Cn_6Ca8cMXQefkyAjcg-11">
          <mxGeometry x="186" y="33" width="100" height="57" as="geometry" />
        </mxCell>
        <mxCell id="1Cn_6Ca8cMXQefkyAjcg-16" value="S0" style="shape=step;perimeter=stepPerimeter;fixedSize=1;points=[];fillColor=#f5f5f5;fontColor=#333333;strokeColor=#666666;" vertex="1" parent="1Cn_6Ca8cMXQefkyAjcg-11">
          <mxGeometry x="274" y="33" width="100" height="57" as="geometry" />
        </mxCell>
        <mxCell id="1Cn_6Ca8cMXQefkyAjcg-30" style="edgeStyle=none;rounded=0;orthogonalLoop=1;jettySize=auto;html=1;exitX=0.5;exitY=1;exitDx=0;exitDy=0;" edge="1" parent="1" source="1Cn_6Ca8cMXQefkyAjcg-26" target="1Cn_6Ca8cMXQefkyAjcg-29">
          <mxGeometry relative="1" as="geometry" />
        </mxCell>
        <mxCell id="1Cn_6Ca8cMXQefkyAjcg-26" value="文件事件分派器" style="rounded=0;whiteSpace=wrap;html=1;fillColor=#f8cecc;strokeColor=#b85450;" vertex="1" parent="1">
          <mxGeometry x="416.5" y="410" width="120" height="60" as="geometry" />
        </mxCell>
        <mxCell id="1Cn_6Ca8cMXQefkyAjcg-28" style="rounded=0;orthogonalLoop=1;jettySize=auto;html=1;exitX=0.5;exitY=1;exitDx=0;exitDy=0;entryX=0.5;entryY=0;entryDx=0;entryDy=0;" edge="1" parent="1" source="1Cn_6Ca8cMXQefkyAjcg-20" target="1Cn_6Ca8cMXQefkyAjcg-26">
          <mxGeometry relative="1" as="geometry" />
        </mxCell>
        <mxCell id="1Cn_6Ca8cMXQefkyAjcg-29" value="" style="rounded=0;whiteSpace=wrap;html=1;" vertex="1" parent="1">
          <mxGeometry x="270" y="530" width="410" height="140" as="geometry" />
        </mxCell>
        <mxCell id="1Cn_6Ca8cMXQefkyAjcg-31" value="连接应答处理器" style="rounded=0;whiteSpace=wrap;html=1;fillColor=#dae8fc;strokeColor=#6c8ebf;" vertex="1" parent="1">
          <mxGeometry x="296.5" y="580" width="103.5" height="60" as="geometry" />
        </mxCell>
        <mxCell id="1Cn_6Ca8cMXQefkyAjcg-32" value="连接应答处理器" style="rounded=0;whiteSpace=wrap;html=1;fillColor=#d5e8d4;strokeColor=#82b366;" vertex="1" parent="1">
          <mxGeometry x="423.25" y="580" width="103.5" height="60" as="geometry" />
        </mxCell>
        <mxCell id="1Cn_6Ca8cMXQefkyAjcg-33" value="连接应答处理器" style="rounded=0;whiteSpace=wrap;html=1;fillColor=#fff2cc;strokeColor=#d6b656;" vertex="1" parent="1">
          <mxGeometry x="550" y="580" width="103.5" height="60" as="geometry" />
        </mxCell>
        <mxCell id="1Cn_6Ca8cMXQefkyAjcg-34" value="事件处理器" style="text;html=1;strokeColor=none;fillColor=none;align=center;verticalAlign=middle;whiteSpace=wrap;rounded=0;fontStyle=1" vertex="1" parent="1">
          <mxGeometry x="435" y="540" width="80" height="30" as="geometry" />
        </mxCell>
      </root>
    </mxGraphModel>
  </diagram>
</mxfile>
